<svg width="26" height="26" viewBox="0 0 26 26" fill="none" xmlns="http://www.w3.org/2000/svg">
<rect x="0.5" y="0.5" width="25" height="25" rx="12.5" fill="white"/>
<rect x="0.5" y="0.5" width="25" height="25" rx="12.5" stroke="#FFB414"/>
<path d="M12.4937 18.4188L7.45 13.375C7.3875 13.325 7.34375 13.2688 7.31875 13.2063C7.29375 13.1438 7.28125 13.075 7.28125 13C7.28125 12.925 7.29375 12.8563 7.31875 12.7938C7.34375 12.7313 7.3875 12.675 7.45 12.625L12.5125 7.5625C12.5875 7.4875 12.6813 7.45 12.7938 7.45C12.9063 7.45 13 7.49375 13.075 7.58125C13.1625 7.66875 13.2062 7.76875 13.2062 7.88125C13.2062 7.99375 13.1625 8.09375 13.075 8.18125L8.6875 12.5688H18.0812C18.1937 12.5688 18.2906 12.6094 18.3719 12.6906C18.4531 12.7719 18.4938 12.875 18.4938 13C18.4938 13.125 18.4531 13.2281 18.3719 13.3094C18.2906 13.3906 18.1937 13.4313 18.0812 13.4313H8.6875L13.0938 17.8375C13.1687 17.9125 13.2062 18.0063 13.2062 18.1188C13.2062 18.2313 13.1625 18.3313 13.075 18.4188C12.9875 18.5063 12.8875 18.55 12.775 18.55C12.6625 18.55 12.5687 18.5063 12.4937 18.4188Z" fill="#465671"/>
</svg>
