<svg width="20" height="20" viewBox="0 0 20 20" fill="none" xmlns="http://www.w3.org/2000/svg">
<path d="M16.1249 16.7708L11.0624 11.7292C10.6458 12.0903 10.1631 12.3715 9.6145 12.5729C9.06589 12.7743 8.49297 12.875 7.89575 12.875C6.47909 12.875 5.28117 12.3854 4.302 11.4062C3.32284 10.4271 2.83325 9.23611 2.83325 7.83333C2.83325 6.44444 3.32284 5.26042 4.302 4.28125C5.28117 3.30208 6.47214 2.8125 7.87492 2.8125C9.2777 2.8125 10.4687 3.30208 11.4478 4.28125C12.427 5.26042 12.9166 6.44444 12.9166 7.83333C12.9166 8.41667 12.8159 8.98611 12.6145 9.54167C12.4131 10.0972 12.1249 10.5972 11.7499 11.0417L16.8333 16.1042C16.9305 16.2014 16.9791 16.3125 16.9791 16.4375C16.9791 16.5625 16.9235 16.6736 16.8124 16.7708C16.7152 16.8819 16.5971 16.9375 16.4583 16.9375C16.3194 16.9375 16.2083 16.8819 16.1249 16.7708ZM7.89575 11.9375C9.02075 11.9375 9.97909 11.5382 10.7708 10.7396C11.5624 9.94097 11.9583 8.97222 11.9583 7.83333C11.9583 6.69444 11.5624 5.72917 10.7708 4.9375C9.97909 4.14583 9.02075 3.75 7.89575 3.75C6.74297 3.75 5.77075 4.14583 4.97909 4.9375C4.18742 5.72917 3.79159 6.69444 3.79159 7.83333C3.79159 8.97222 4.18742 9.94097 4.97909 10.7396C5.77075 11.5382 6.74297 11.9375 7.89575 11.9375Z" fill="#465671"/>
</svg>
