<svg width="34" height="34" viewBox="0 0 34 34" fill="none" xmlns="http://www.w3.org/2000/svg">
<rect width="34" height="34" rx="17" fill="#FFB414"/>
<path d="M17 22.25C16.8375 22.25 16.7031 22.1969 16.5969 22.0906C16.4906 21.9844 16.4375 21.85 16.4375 21.6875V17.5625H12.3125C12.15 17.5625 12.0156 17.5094 11.9094 17.4031C11.8031 17.2969 11.75 17.1625 11.75 17C11.75 16.8375 11.8031 16.7031 11.9094 16.5969C12.0156 16.4906 12.15 16.4375 12.3125 16.4375H16.4375V12.3125C16.4375 12.15 16.4906 12.0156 16.5969 11.9094C16.7031 11.8031 16.8375 11.75 17 11.75C17.1625 11.75 17.2969 11.8031 17.4031 11.9094C17.5094 12.0156 17.5625 12.15 17.5625 12.3125V16.4375H21.6875C21.85 16.4375 21.9844 16.4906 22.0906 16.5969C22.1969 16.7031 22.25 16.8375 22.25 17C22.25 17.1625 22.1969 17.2969 22.0906 17.4031C21.9844 17.5094 21.85 17.5625 21.6875 17.5625H17.5625V21.6875C17.5625 21.85 17.5094 21.9844 17.4031 22.0906C17.2969 22.1969 17.1625 22.25 17 22.25Z" fill="#091E42"/>
</svg>
